<svg xmlns="http://www.w3.org/2000/svg"
    xmlns:xlink="http://www.w3.org/1999/xlink" version="1.1" x="0px" y="0px" viewBox="0 0 100.0 100" style="max-width:100%" height="100%">
    <path d="M925,1200 l-1050,0 c-50,0,-75,-25,-75,-75 l0,-750 c0,-50,25,-75,75,-75 l125,0 l0,525 c0,116,52,165,175,165 l825,0 l0,135 c0,50,-25,75,-75,75 Z M1225,900 l-1050,0 c-50,0,-75,-25,-75,-75 l0,-125 l1200,0 l0,125 c0,50,-25,75,-75,75 Z M100,75 c0,-50,25,-75,75,-75 l1050,0 c50,0,75,25,75,75 l0,475 l-1200,0 Z M900,250 l200,0 c50,0,50,0,50,-50 c0,-50,0,-50,-50,-50 l-200,0 c-50,0,-50,0,-50,50 c0,50,0,50,50,50 Z M900,250 " fill="#C8693A" stroke="currentColor" stroke-dasharray="none" stroke-linecap="inherit" stroke-linejoin="inherit" stroke-width="1" transform="matrix(0.05,0.0,0.0,-0.05,20.0,80.0)" style=""></path>
</svg>