<svg xmlns="http://www.w3.org/2000/svg"
    xmlns:xlink="http://www.w3.org/1999/xlink" version="1.1" x="0px" y="0px" viewBox="0 0 100 100" enable-background="new 0 0 100 100" xml:space="preserve" style="max-width:100%" height="100%">
    <path d="M52.453,69.83c0,5.184,4.219,9.404,9.402,9.404c5.186,0,9.404-4.221,9.404-9.404s-4.219-9.402-9.404-9.402  C56.672,60.428,52.453,64.646,52.453,69.83z M58.398,69.83c0-1.906,1.551-3.457,3.457-3.457s3.459,1.551,3.459,3.457  c0,1.908-1.553,3.459-3.459,3.459S58.398,71.738,58.398,69.83z" style="" fill="#C8693A"></path>
    <path d="M11.524,69.83c0,5.184,4.219,9.404,9.404,9.404c5.184,0,9.402-4.221,9.402-9.404s-4.219-9.402-9.402-9.402  C15.744,60.428,11.524,64.646,11.524,69.83z M17.471,69.83c0-1.906,1.552-3.457,3.458-3.457c1.906,0,3.457,1.551,3.457,3.457  c0,1.908-1.551,3.459-3.457,3.459C19.023,73.289,17.471,71.738,17.471,69.83z" style="" fill="#C8693A"></path>
    <rect x="66.805" y="28.854" width="28.195" height="3.43" style="" fill="#C8693A"></rect>
    <path d="M77.453,44.969v-1.753H64.887v-7.262h12.566V34.2H64.887v-7.263h12.396c-0.477-1.665-1.994-2.892-3.811-2.892H38.628  c-2.201,0-3.984,1.782-3.984,3.981v28.096h-2.542V31.014H9.757c0,0-4.757,18.251-4.757,19.689c0,1.44,0,14.381,0,14.381h3.074  c1.935-5.23,6.951-8.969,12.854-8.969c5.904,0,10.922,3.738,12.856,8.969h4.843h0.663h9.711c1.934-5.23,6.949-8.969,12.853-8.969  c5.838,0,10.811,3.65,12.791,8.791c1.627-0.502,2.807-2.016,2.807-3.805v-8.869H64.887v-7.263H77.453z M28.009,47.052H10.752  l2.656-11.283h14.601V47.052z" style="" fill="#C8693A"></path>
    <rect x="66.805" y="37.871" width="23.242" height="3.43" style="" fill="#C8693A"></rect>
    <rect x="66.805" y="46.886" width="17.146" height="3.43" style="" fill="#C8693A"></rect>
</svg>