<svg xmlns="http://www.w3.org/2000/svg"
    xmlns:xlink="http://www.w3.org/1999/xlink" version="1.1" x="0px" y="0px" viewBox="0 0 40 40" enable-background="new 0 0 40 40" xml:space="preserve" style="max-width:100%" height="100%">
    <path fill-rule="evenodd" clip-rule="evenodd" d="M19.2,6.5L7.6,7.6L6.5,19.2l14.3,14.3l12.8-12.8L19.2,6.5z   M13.9,13.9c-0.8,0.8-2,0.8-2.8,0c-0.8-0.8-0.8-2,0-2.8c0.8-0.8,2-0.8,2.8,0C14.7,11.8,14.7,13.1,13.9,13.9z M14.5,17.5  c0-1.1,0.9-2,2-2c1.1,0,2,0.9,2,2s-0.9,2-2,2C15.4,19.5,14.5,18.6,14.5,17.5z M17.5,24.5h-2l7-9h2L17.5,24.5z M23.5,24.5  c-1.1,0-2-0.9-2-2c0-1.1,0.9-2,2-2c1.1,0,2,0.9,2,2C25.5,23.6,24.6,24.5,23.5,24.5z M17.5,17.5c0-0.6-0.4-1-1-1c-0.6,0-1,0.4-1,1  c0,0.6,0.4,1,1,1C17,18.5,17.5,18,17.5,17.5z M23.5,21.5c-0.6,0-1,0.4-1,1c0,0.6,0.4,1,1,1c0.6,0,1-0.4,1-1  C24.5,21.9,24,21.5,23.5,21.5z" style="" fill="currentColor"></path>
</svg>