<svg xmlns="http://www.w3.org/2000/svg" viewBox="0 0 24 24" x="0px" y="0px" style="max-width:100%" height="100%">
    <title style="" fill="currentColor">grape, fruit, fresh_1</title>
    <path d="M16.5,2.71c-1,0-4.5,0-4.5,3C14.94,6.89,16.5,4.71,16.5,2.71Z" style="" fill="currentColor"></path>
    <path d="M16.5,7.23A2.5,2.5,0,1,0,19,9.73,2.5,2.5,0,0,0,16.5,7.23Z" style="" fill="currentColor"></path>
    <path d="M11.5,15.72a2.5,2.5,0,0,1-.5-1.49,2.45,2.45,0,0,1,.23-1,3,3,0,0,1-1.73-.76,3,3,0,0,1-2,.77H7.23a2.45,2.45,0,0,0-.23,1,2.5,2.5,0,0,0,4.5,1.49Z" style="" fill="currentColor"></path>
    <path d="M9.15,11.6a3,3,0,0,1,0-3.73A2.48,2.48,0,0,0,7.5,7.23a2.5,2.5,0,0,0,0,5A2.47,2.47,0,0,0,9.15,11.6Z" style="" fill="currentColor"></path>
    <path d="M12,12.23a2.47,2.47,0,0,0,1.65-.63,3,3,0,0,1,0-3.73A2.48,2.48,0,0,0,12,7.23a2.5,2.5,0,0,0,0,5Z" style="" fill="currentColor"></path>
    <path d="M11.94,16.73a3.44,3.44,0,0,1-2.24,1,2.45,2.45,0,0,0-.26,1.07,2.5,2.5,0,0,0,5,0,2.45,2.45,0,0,0-.23-1A3.48,3.48,0,0,1,11.94,16.73Z" style="" fill="currentColor"></path>
    <path d="M16.5,13.23a3,3,0,0,1-2-.77h0a3,3,0,0,1-2,.76h-.27a2.45,2.45,0,0,0-.23,1,2.5,2.5,0,0,0,5,0,2.45,2.45,0,0,0-.23-1Z" style="" fill="currentColor"></path>
</svg>